<svg viewBox="0 0 32 32" xmlns="http://www.w3.org/2000/svg">
  <defs>
    <!-- Gradient for the main flow element -->
    <linearGradient id="flowGradient" x1="0%" y1="0%" x2="100%" y2="100%">
      <stop offset="0%" style="stop-color:#3b82f6;stop-opacity:1" />
      <stop offset="50%" style="stop-color:#8b5cf6;stop-opacity:1" />
      <stop offset="100%" style="stop-color:#06b6d4;stop-opacity:1" />
    </linearGradient>
    
    <!-- Gradient for secondary elements -->
    <linearGradient id="accentGradient" x1="0%" y1="0%" x2="100%" y2="100%">
      <stop offset="0%" style="stop-color:#f59e0b;stop-opacity:0.8" />
      <stop offset="100%" style="stop-color:#ef4444;stop-opacity:0.8" />
    </linearGradient>
    
    <!-- Background circle gradient -->
    <radialGradient id="bgGradient" cx="50%" cy="50%" r="50%">
      <stop offset="0%" style="stop-color:#1e293b;stop-opacity:1" />
      <stop offset="100%" style="stop-color:#0f172a;stop-opacity:1" />
    </radialGradient>
  </defs>
  
  <!-- Background circle for better contrast -->
  <circle cx="16" cy="16" r="15" fill="url(#bgGradient)" stroke="url(#flowGradient)" stroke-width="0.5"/>
  
  <!-- Main flow curve representing the "flow" in FlowLabKit -->
  <path d="M6 20 Q10 12, 16 16 Q22 20, 26 12" 
        stroke="url(#flowGradient)" 
        stroke-width="2.5" 
        fill="none" 
        stroke-linecap="round"/>
  
  <!-- Secondary flow curve for depth -->
  <path d="M8 24 Q12 18, 16 20 Q20 22, 24 18" 
        stroke="url(#flowGradient)" 
        stroke-width="1.5" 
        fill="none" 
        stroke-linecap="round"
        opacity="0.6"/>
  
  <!-- Component blocks representing the "kit" aspect -->
  <rect x="4" y="8" width="4" height="4" rx="1" fill="url(#accentGradient)"/>
  <rect x="14" y="6" width="4" height="4" rx="1" fill="url(#accentGradient)"/>
  <rect x="24" y="8" width="4" height="4" rx="1" fill="url(#accentGradient)"/>
  
  <!-- Lab flask/beaker silhouette for the "lab" aspect -->
  <path d="M12 4 L12 8 L10 12 L10 14 Q10 15, 11 15 L17 15 Q18 15, 18 14 L18 12 L16 8 L16 4 Z" 
        fill="url(#flowGradient)" 
        opacity="0.3"/>
  
  <!-- Small dots for additional detail and theme variety -->
  <circle cx="8" cy="14" r="1" fill="#3b82f6" opacity="0.7"/>
  <circle cx="24" cy="24" r="1" fill="#8b5cf6" opacity="0.7"/>
  <circle cx="6" cy="26" r="0.8" fill="#06b6d4" opacity="0.7"/>
  <circle cx="26" cy="26" r="0.8" fill="#f59e0b" opacity="0.7"/>
</svg>